<svg width="250" height="251" viewBox="0 0 250 251" fill="none" xmlns="http://www.w3.org/2000/svg">
<g filter="url(#filter0_d_2241_1067)">
<path d="M222.81 109.89L159.36 86.8102C159.091 86.7135 158.846 86.5584 158.644 86.3562C158.442 86.1539 158.287 85.9094 158.19 85.6402L135.11 22.1902C134.132 19.4991 132.348 17.1744 130.003 15.5317C127.658 13.889 124.864 13.0078 122 13.0078C119.137 13.0078 116.343 13.889 113.997 15.5317C111.652 17.1744 109.869 19.4991 108.89 22.1902L85.8102 85.6402C85.7135 85.9094 85.5584 86.1539 85.3562 86.3562C85.1539 86.5584 84.9094 86.7135 84.6402 86.8102L21.1902 109.89C18.4991 110.869 16.1744 112.652 14.5317 114.997C12.889 117.343 12.0078 120.137 12.0078 123C12.0078 125.864 12.889 128.658 14.5317 131.003C16.1744 133.348 18.4991 135.132 21.1902 136.11L84.6402 159.19C84.9094 159.287 85.1539 159.442 85.3562 159.644C85.5584 159.846 85.7135 160.091 85.8102 160.36L108.89 223.81C109.869 226.501 111.652 228.826 113.997 230.469C116.343 232.111 119.137 232.993 122 232.993C124.864 232.993 127.658 232.111 130.003 230.469C132.348 228.826 134.132 226.501 135.11 223.81L158.19 160.36C158.287 160.091 158.442 159.846 158.644 159.644C158.846 159.442 159.091 159.287 159.36 159.19L222.81 136.11C225.501 135.132 227.826 133.348 229.469 131.003C231.111 128.658 231.993 125.864 231.993 123C231.993 120.137 231.111 117.343 229.469 114.997C227.826 112.652 225.501 110.869 222.81 109.89ZM218.71 124.89L155.26 147.96C153.344 148.66 151.604 149.769 150.162 151.212C148.719 152.654 147.61 154.394 146.91 156.31L123.84 219.76C123.686 220.121 123.43 220.429 123.103 220.645C122.776 220.861 122.392 220.976 122 220.976C121.608 220.976 121.225 220.861 120.897 220.645C120.57 220.429 120.314 220.121 120.16 219.76L97.0902 156.31C96.3907 154.394 95.2809 152.654 93.8386 151.212C92.3963 149.769 90.6562 148.66 88.7402 147.96L25.2902 124.84C24.9294 124.686 24.6218 124.43 24.4055 124.103C24.1893 123.776 24.074 123.392 24.074 123C24.074 122.608 24.1893 122.225 24.4055 121.897C24.6218 121.57 24.9294 121.314 25.2902 121.16L88.7402 98.0902C90.6562 97.3907 92.3963 96.2809 93.8386 94.8386C95.2809 93.3963 96.3907 91.6562 97.0902 89.7402L120.16 26.2902C120.314 25.9294 120.57 25.6218 120.897 25.4055C121.225 25.1893 121.608 25.074 122 25.074C122.392 25.074 122.776 25.1893 123.103 25.4055C123.43 25.6218 123.686 25.9294 123.84 26.2902L146.91 89.7402C147.61 91.6562 148.719 93.3963 150.162 94.8386C151.604 96.2809 153.344 97.3907 155.26 98.0902L218.71 121.16C219.071 121.314 219.379 121.57 219.595 121.897C219.811 122.225 219.926 122.608 219.926 123C219.926 123.392 219.811 123.776 219.595 124.103C219.379 124.43 219.071 124.686 218.71 124.84V124.89Z" fill="white"/>
</g>
<defs>
<filter id="filter0_d_2241_1067" x="0.0078125" y="0.0078125" width="259.984" height="259.985" filterUnits="userSpaceOnUse" color-interpolation-filters="sRGB">
<feFlood flood-opacity="0" result="BackgroundImageFix"/>
<feColorMatrix in="SourceAlpha" type="matrix" values="0 0 0 0 0 0 0 0 0 0 0 0 0 0 0 0 0 0 127 0" result="hardAlpha"/>
<feOffset dx="8" dy="7"/>
<feGaussianBlur stdDeviation="10"/>
<feComposite in2="hardAlpha" operator="out"/>
<feColorMatrix type="matrix" values="0 0 0 0 0 0 0 0 0 0 0 0 0 0 0 0 0 0 0.25 0"/>
<feBlend mode="normal" in2="BackgroundImageFix" result="effect1_dropShadow_2241_1067"/>
<feBlend mode="normal" in="SourceGraphic" in2="effect1_dropShadow_2241_1067" result="shape"/>
</filter>
</defs>
</svg>
